<?xml version="1.0"?>
<svg fill="#A6EB00" id="Layer_1" data-name="Layer 1" xmlns="http://www.w3.org/2000/svg" viewBox="0 0 1000 1000">
  <defs>
    
  </defs>
  <rect class="cls-1" x="284.56" y="843.92" width="263.42" height="29.13" transform="translate(-514.27 1069.1) rotate(-76.89)"></rect>
  <rect class="cls-1" x="200.72" y="813.27" width="263.42" height="29.13" transform="translate(-556.03 747.5) rotate(-62.95)"></rect>
  <rect class="cls-1" x="126.72" y="763.34" width="263.42" height="29.13" transform="translate(-498.36 462.97) rotate(-49.03)"></rect>
  <rect class="cls-1" x="66.92" y="697.07" width="263.42" height="29.13" transform="translate(-373.1 243.65) rotate(-35.1)"></rect>
  <rect class="cls-1" x="24.82" y="618.36" width="263.42" height="29.13" transform="translate(-218.06 99.28) rotate(-21.18)"></rect>
  <rect class="cls-1" x="2.9" y="531.82" width="263.42" height="29.13" transform="translate(-67.87 21.35) rotate(-7.25)"></rect>
  <rect class="cls-1" x="119.6" y="325.41" width="29.13" height="263.42" transform="translate(-335.46 537.24) rotate(-83.32)"></rect>
  <rect class="cls-1" x="140.65" y="238.67" width="29.13" height="263.42" transform="translate(-246.09 385.34) rotate(-69.4)"></rect>
  <rect class="cls-1" x="181.96" y="159.54" width="29.13" height="263.42" transform="translate(-154.81 288.07) rotate(-55.47)"></rect>
  <rect class="cls-1" x="241.1" y="92.67" width="29.13" height="263.42" transform="translate(-84.5 226.01) rotate(-41.55)"></rect>
  <rect class="cls-1" x="314.59" y="42.01" width="29.13" height="263.42" transform="translate(-43.03 172.39) rotate(-27.62)"></rect>
  <rect class="cls-1" x="398.12" y="10.52" width="29.13" height="263.42" transform="translate(-21.94 101.73) rotate(-13.69)"></rect>
  <rect class="cls-1" x="369.62" y="117.21" width="263.42" height="29.13" transform="translate(367.5 632.56) rotate(-89.76)"></rect>
  <rect class="cls-1" x="458.18" y="128.39" width="263.42" height="29.13" transform="translate(306.96 679.95) rotate(-75.84)"></rect>
  <rect class="cls-1" x="541.45" y="160.56" width="263.42" height="29.13" transform="translate(201.72 686.55) rotate(-61.91)"></rect>
  <rect class="cls-1" x="614.53" y="211.82" width="263.42" height="29.13" transform="translate(78.57 629.3) rotate(-47.99)"></rect>
  <rect class="cls-1" x="673.12" y="279.17" width="263.42" height="29.13" transform="translate(-26.44 501.15) rotate(-34.06)"></rect>
  <rect class="cls-1" x="713.78" y="358.64" width="263.42" height="29.13" transform="translate(-76.79 313.85) rotate(-20.13)"></rect>
  <rect class="cls-1" x="734.12" y="445.55" width="263.42" height="29.13" transform="translate(-44.68 96.32) rotate(-6.21)"></rect>
  <rect class="cls-1" x="850.09" y="417.66" width="29.13" height="263.42" transform="translate(204.13 1332.41) rotate(-82.28)"></rect>
  <rect class="cls-1" x="827.47" y="504.01" width="29.13" height="263.42" transform="translate(-59.45 1183.89) rotate(-68.36)"></rect>
  <rect class="cls-1" x="784.72" y="582.38" width="29.13" height="263.42" transform="translate(-246.5 948.83) rotate(-54.43)"></rect>
  <rect class="cls-1" x="724.38" y="648.15" width="29.13" height="263.42" transform="translate(-329.44 666.81) rotate(-40.5)"></rect>
  <rect class="cls-1" x="649.98" y="697.48" width="29.13" height="263.42" transform="translate(-300.76 384.92) rotate(-26.58)"></rect>
  <rect class="cls-1" x="565.89" y="727.44" width="29.13" height="263.42" transform="translate(-174.06 147.97) rotate(-12.65)"></rect>
  <rect class="cls-1" x="359.92" y="853.43" width="263.42" height="29.13" transform="translate(-387.1 1340.18) rotate(-88.72)"></rect>
</svg>