<?xml version="1.0"?>
<svg fill="#00413A" id="Layer_1" data-name="Layer 1" xmlns="http://www.w3.org/2000/svg" viewBox="0 0 1000 1000">
  <defs>
    
  </defs>
  <path class="cls-1" d="M249.99,250.01c138.07,0,250.01-111.91,250.01-250.01H-.01C-.01,138.1,111.92,250.01,249.99,250.01Z"></path>
  <path class="cls-1" d="M999.99,0h-499.99c0,138.1,111.94,250.01,250.01,250.01S999.99,138.1,999.99,0Z"></path>
  <path class="cls-1" d="M250.02,750.02c138.07-.03,249.98-111.94,249.98-250.01s-111.94-250.01-250.01-250.01S-.01,361.95-.01,500.01s111.94,249.98,250.01,250.01C111.92,750.02-.01,861.96-.01,1000h500.01c0-138.04-111.91-249.98-249.98-249.98Z"></path>
  <path class="cls-1" d="M750.01,750.02c138.07-.03,250.01-111.94,250.01-250.01s-111.94-250.01-250.01-250.01-250.01,111.94-250.01,250.01,111.91,249.98,249.98,250.01c-138.07,0-249.98,111.94-249.98,249.98h499.99c0-138.04-111.91-249.98-249.98-249.98Z"></path>
</svg>