<?xml version="1.0"?>
<svg fill="#4C20FF" id="Layer_1" data-name="Layer 1" xmlns="http://www.w3.org/2000/svg" viewBox="0 0 1000 1000">
  <defs>
    
  </defs>
  <path class="cls-1" d="M499.97,0C224.05,0,0,224.06,0,500.03v499.97h499.97c275.97,0,500.03-224.05,500.03-499.97S775.95,0,499.97,0ZM294.94,587.79c-48.48,11.45-97.07-18.58-108.52-67.07-11.45-48.48,18.58-97.07,67.07-108.52,48.48-11.45,97.07,18.58,108.52,67.07,11.45,48.5-18.58,97.07-67.07,108.52ZM562.18,563.79c-35.21,35.23-92.33,35.23-127.56,0-35.23-35.23-35.23-92.35,0-127.58,35.23-35.23,92.35-35.23,127.56,0,35.23,35.23,35.23,92.35,0,127.58ZM786.35,563.79c-35.23,35.23-92.35,35.23-127.58,0-35.23-35.23-35.23-92.35,0-127.58,35.23-35.23,92.35-35.23,127.58,0,35.23,35.23,35.23,92.35,0,127.58Z"></path>
</svg>