<?xml version="1.0"?>
<svg fill="#4C20FF" id="Layer_1" data-name="Layer 1" xmlns="http://www.w3.org/2000/svg" viewBox="0 0 1000 1000">
  <defs>
    
  </defs>
  <path class="cls-1" d="M500,252.99c0,136.33-110.68,247.01-247.01,247.01S6,389.32,6,252.99V6h246.99c136.33,0,247.01,110.68,247.01,246.99Z"></path>
  <path class="cls-1" d="M747.01,500c-136.33,0-247.01-110.68-247.01-247.01S610.68,6,747.01,6h246.99v246.99c0,136.33-110.68,247.01-246.99,247.01Z"></path>
  <path class="cls-1" d="M500,747.01c0-136.33,110.68-247.01,247.01-247.01s246.99,110.68,246.99,247.01v246.99h-246.99c-136.33,0-247.01-110.68-247.01-246.99Z"></path>
  <path class="cls-1" d="M252.99,500c136.33,0,247.01,110.68,247.01,247.01s-110.68,246.99-247.01,246.99H6v-246.99c0-136.33,110.68-247.01,246.99-247.01Z"></path>
</svg>