<?xml version="1.0"?>
<svg fill="#00413A" id="Layer_1" data-name="Layer 1" xmlns="http://www.w3.org/2000/svg" viewBox="0 0 1000 996.21">
  <defs>
    
  </defs>
  <path class="cls-1" d="M986.11,300.69l-51.17-36.68c-51.36-36.68-120.34-36.87-171.69-.38-.38.19-66.03,48.52-66.03,48.52-7.15-7.53-3.7-3.89-11.23-10.84,0,0,50.2-64.16,50.39-64.54,36.4-51.45,36.3-120.34-.38-171.69l-36.68-51.17c-5.72-8,4.19-17.91,12.2-12.2l46.12,32.97c54.5,39.06,127.87,39.06,182.37,0L986.11,1.7c8-5.72,17.91,4.19,12.2,12.2l-32.97,46.12c-39.06,54.5-39.07,127.87,0,182.37l32.97,46.12c5.72,8-4.19,17.91-12.2,12.2Z"></path>
  <path class="cls-1" d="M486.9,465.13l-2.29,1.52C49.95,758.02-162.43,409.96,145.8,234.93c187.99-104.9,401.89-61.55,540.33,66.22,0,0-110.62,102.04-199.23,163.98Z"></path>
  <path class="cls-1" d="M676.32,956.58c-89.09,72.32-218.67,43.92-248.97-70.98-33.16-136.25,43.35-280.03,118.15-391.98,58.12-81.18,151.78-181.7,151.78-181.7,84.8,89.37,135.11,213.24,122.34,353.87-9.72,107.48-56.69,223.62-143.3,290.79Z"></path>
</svg>