<?xml version="1.0"?>
<svg id="Layer_1" data-name="Layer 1" xmlns="http://www.w3.org/2000/svg" viewBox="0 0 1000 149.9">
  <defs>
    
  </defs>
  <path class="cls-1" d="M120.86,0v33.08h-39.86v116.41h-41.57V33.08H0V0h120.86Z"></path>
  <path class="cls-1" d="M321.07,0v149.49h-41.57V0h41.57Z"></path>
  <path class="cls-1" d="M380.02,117.68h46.43v31.8h-88V0h41.57v117.68Z"></path>
  <path class="cls-1" d="M636.8,0l-36.69,149.49h-51.09l-20.57-91.6-21,91.6h-51.09L420.11,0h44.95l17.38,102.2L505.97,0h45.59l22.9,101.35L591.85,0h44.95Z"></path>
  <path class="cls-1" d="M689.61,0v149.49h-41.57V0h41.57Z"></path>
  <g>
    <path class="cls-1" d="M803.89,35.85v48.75L748.55,0h-41.57v149.49h41.57v-83.54l55.34,83.54h41.55v-77.59c0-19.91-18.6-36.05-41.55-36.05Z"></path>
    <path class="cls-1" d="M845.44,0h-41.55v35.85c22.95,0,41.55-16.05,41.55-35.85Z"></path>
  </g>
  <path class="cls-1" d="M990.47,36.25c-6.37-11.3-15.46-20.1-27.26-26.39-11.8-6.29-25.54-9.44-41.24-9.44h-59.15c0,19.8,18.6,35.85,41.55,35.85-22.95,0-41.55,16.14-41.55,36.05v77.59h59.15c15.56,0,29.23-3.21,41.03-9.65,11.8-6.44,20.91-15.31,27.35-26.61,6.44-11.31,9.65-24.18,9.65-38.59s-3.18-27.5-9.53-38.81ZM947.42,103.25c-6.92,6.65-16.46,9.97-28.63,9.97h-14.41V36.46h14.41c12.17,0,21.71,3.36,28.63,10.07,6.92,6.72,10.39,16.22,10.39,28.52s-3.47,21.55-10.39,28.2Z"></path>
  <path class="cls-1" d="M215.98,125.1h-49.72l-7.56,24.38h-40.97L168.84,0h44.95l50.91,149.49h-41.17l-7.56-24.38ZM206.23,93.29l-15.12-48.34-14.92,48.34h30.03Z"></path>
</svg>