<?xml version="1.0"?>
<svg fill="#FFFFFF" id="Layer_1" data-name="Layer 1" xmlns="http://www.w3.org/2000/svg" viewBox="0 0 1000 313.84">
  <defs>
    
  </defs>
  <g>
    <path class="cls-1" d="M592.99,206.33c4.82,2.79,8.39,6.3,10.74,10.53v-13.5h12.43v75.64c0,6.75-1.44,12.76-4.33,18.03-2.88,5.26-7,9.39-12.36,12.36-5.36,2.97-11.59,4.46-18.71,4.46-9.73,0-17.83-2.29-24.31-6.89-6.48-4.59-10.31-10.85-11.48-18.77h12.16c1.35,4.5,4.14,8.13,8.37,10.87,4.23,2.75,9.32,4.12,15.26,4.12,6.76,0,12.27-2.11,16.55-6.34,4.28-4.24,6.42-10.18,6.42-17.83v-15.54c-2.43,4.33-6.03,7.93-10.81,10.81-4.77,2.88-10.35,4.33-16.75,4.33s-12.54-1.62-17.89-4.87c-5.36-3.24-9.57-7.79-12.62-13.64-3.06-5.85-4.59-12.52-4.59-19.99s1.53-14.2,4.59-19.92c3.06-5.72,7.27-10.15,12.62-13.3,5.36-3.15,11.33-4.73,17.89-4.73s12,1.4,16.82,4.19ZM600.35,225.65c-2.26-4.14-5.29-7.32-9.12-9.52-3.83-2.21-8.03-3.31-12.62-3.31s-8.78,1.08-12.57,3.24c-3.78,2.16-6.8,5.31-9.05,9.45-2.25,4.15-3.37,9-3.37,14.58s1.12,10.61,3.37,14.79c2.25,4.19,5.27,7.38,9.05,9.59,3.79,2.21,7.97,3.31,12.57,3.31s8.8-1.1,12.62-3.31c3.83-2.21,6.86-5.4,9.12-9.59,2.25-4.19,3.37-9.07,3.37-14.66s-1.12-10.44-3.37-14.58Z"></path>
    <path class="cls-1" d="M658.5,205.53c4-2.34,8.89-3.51,14.65-3.51v12.69h-3.24c-13.78,0-20.67,7.48-20.67,22.42v40.25h-12.29v-74.01h12.29v12.02c2.16-4.23,5.25-7.51,9.26-9.86Z"></path>
    <path class="cls-1" d="M700.77,273.87c-5.63-3.15-10.04-7.63-13.24-13.44-3.2-5.81-4.79-12.54-4.79-20.19s1.64-14.25,4.92-20.06c3.29-5.8,7.77-10.27,13.44-13.37,5.67-3.11,12.03-4.66,19.05-4.66s13.37,1.56,19.04,4.66c5.67,3.1,10.15,7.54,13.44,13.3,3.29,5.76,4.93,12.47,4.93,20.12s-1.69,14.38-5.06,20.19c-3.38,5.8-7.95,10.29-13.71,13.44-5.76,3.15-12.16,4.73-19.18,4.73s-13.22-1.58-18.84-4.73ZM732.03,264.68c3.87-2.07,7-5.18,9.39-9.32,2.39-4.14,3.58-9.18,3.58-15.13s-1.18-10.98-3.51-15.13c-2.34-4.14-5.41-7.22-9.18-9.25-3.79-2.03-7.88-3.04-12.29-3.04s-8.62,1.02-12.36,3.04c-3.73,2.03-6.73,5.11-8.98,9.25-2.25,4.15-3.37,9.18-3.37,15.13s1.1,11.12,3.31,15.26c2.21,4.15,5.15,7.22,8.85,9.25,3.69,2.03,7.74,3.04,12.16,3.04s8.55-1.04,12.42-3.11Z"></path>
    <path class="cls-1" d="M872.36,203.36l-23.09,74.01h-12.7l-17.83-58.75-17.83,58.75h-12.7l-23.23-74.01h12.56l17.02,62.12,18.36-62.12h12.57l17.96,62.26,16.75-62.26h12.16Z"></path>
    <path class="cls-1" d="M899.51,213.49v43.63c0,3.6.76,6.14,2.29,7.63,1.54,1.49,4.19,2.23,7.97,2.23h9.05v10.4h-11.07c-6.85,0-11.98-1.57-15.4-4.73-3.42-3.15-5.13-8.33-5.13-15.53v-43.63h-9.59v-10.13h9.59v-18.64h12.29v18.64h19.31v10.13h-19.31Z"></path>
    <path class="cls-1" d="M985.54,205.59c4.51,2.39,8.04,5.96,10.61,10.74,2.57,4.77,3.85,10.58,3.85,17.43v43.63h-12.16v-41.87c0-7.38-1.85-13.03-5.54-16.96-3.7-3.91-8.74-5.88-15.13-5.88s-11.64,2.03-15.47,6.08c-3.83,4.05-5.74,9.95-5.74,17.69v40.92h-12.29v-99.95h12.29v36.47c2.43-3.78,5.79-6.7,10.06-8.78,4.28-2.07,9.07-3.1,14.38-3.1,5.58,0,10.63,1.19,15.13,3.58Z"></path>
  </g>
  <path class="cls-1" d="M120.86,0v33.08h-39.86v116.41h-41.57V33.08H0V0h120.86Z"></path>
  <path class="cls-1" d="M321.07,0v149.49h-41.57V0h41.57Z"></path>
  <path class="cls-1" d="M380.02,117.68h46.43v31.8h-88V0h41.57v117.68Z"></path>
  <path class="cls-1" d="M636.8,0l-36.69,149.49h-51.09l-20.57-91.6-21,91.6h-51.09L420.11,0h44.95l17.38,102.2L505.97,0h45.59l22.9,101.35L591.85,0h44.95Z"></path>
  <path class="cls-1" d="M689.61,0v149.49h-41.57V0h41.57Z"></path>
  <g>
    <path class="cls-1" d="M803.89,35.85v48.75L748.55,0h-41.57v149.49h41.57v-83.54l55.34,83.54h41.55v-77.59c0-19.91-18.6-36.05-41.55-36.05Z"></path>
    <path class="cls-1" d="M845.44,0h-41.55v35.85c22.95,0,41.55-16.05,41.55-35.85Z"></path>
  </g>
  <path class="cls-1" d="M990.47,36.25c-6.37-11.3-15.46-20.1-27.26-26.39-11.8-6.29-25.54-9.44-41.24-9.44h-59.15c0,19.8,18.6,35.85,41.55,35.85-22.95,0-41.55,16.14-41.55,36.05v77.59h59.15c15.56,0,29.23-3.21,41.03-9.65,11.8-6.44,20.91-15.31,27.35-26.61,6.44-11.31,9.65-24.18,9.65-38.59s-3.18-27.5-9.53-38.81ZM947.42,103.25c-6.92,6.65-16.46,9.97-28.63,9.97h-14.41V36.46h14.41c12.17,0,21.71,3.36,28.63,10.07,6.92,6.72,10.39,16.22,10.39,28.52s-3.47,21.55-10.39,28.2Z"></path>
  <path class="cls-1" d="M215.98,125.1h-49.72l-7.56,24.38h-40.97L168.84,0h44.95l50.91,149.49h-41.17l-7.56-24.38ZM206.23,93.29l-15.12-48.34-14.92,48.34h30.03Z"></path>
</svg>